<?xml version="1.0" encoding="utf-8"?>
<!-- Generator: Adobe Illustrator 26.4.1, SVG Export Plug-In . SVG Version: 6.00 Build 0)  -->
<svg version="1.1" id="Layer_1" xmlns="http://www.w3.org/2000/svg" xmlns:xlink="http://www.w3.org/1999/xlink" x="0px" y="0px"
	 viewBox="0 0 892.1 177.4" style="enable-background:new 0 0 892.1 177.4;" xml:space="preserve">
<style type="text/css">
	.st0{fill:#F5B500;}
	.st1{fill:#282E3E;}
</style>
<path class="st0" d="M288.5,0v127h127V0H288.5z M389.5,101h-76V25h76V101z"/>
<g>
	<rect x="250.4" y="1.7" class="st0" width="12.7" height="12.7"/>
	<rect x="237.7" y="14.4" class="st0" width="12.7" height="12.7"/>
	<rect x="250.4" y="103.4" class="st0" width="12.7" height="12.7"/>
	<rect x="237.7" y="77.9" class="st0" width="12.7" height="12.7"/>
	<rect x="212.3" y="52.5" class="st0" width="12.7" height="12.7"/>
	<rect x="225" y="39.8" class="st0" width="12.7" height="12.7"/>
	<rect x="250.4" y="52.5" class="st0" width="12.7" height="12.7"/>
	<path class="st0" d="M237.7,114.3v-12.7H225v12.7h-12.7v-12.7H225V76.2h-12.7V63.5h-12.7V50.8h12.7V38.1h-12.7V25.4h12.7v12.7H225
		V12.7h12.7V0l0,0h-37.1l-21.8,34.9l-21.9-35h-17.4h-2.3h-17.4l40.2,63L118.8,127H156l22.7-35.9l22.6,35.9h17.4h2.5h3.7h12.7h1h11.7
		v-12.7H237.7z M199.5,88.9V76.2h-12.7V63.5h-12.7V50.8h12.7v12.7l0,0h12.7v12.7l0,0h12.7v12.7C212.2,88.9,199.5,88.9,199.5,88.9z"
		/>
</g>
<polygon class="st0" points="103.1,101 25,101 25,25 103.5,25 87.5,0 0,0 0,127 86.4,127 "/>
<g>
	<path class="st1" d="M506,77.2l28.3,49.8h-26.7l-23-40.5l-4.3-7.5h-12.1v48h-23.3V0h49c6.7,0,13.2,1.7,19.4,5.1
		c6.3,3.4,11.2,8.3,14.8,14.6s5.4,13,5.4,19.9c0,6.8-1.7,13.3-5.2,19.6c-3.5,6.2-8.3,11.1-14.6,14.6C511.2,75.2,508.6,76.3,506,77.2
		z M468.1,23.3v32.5H494c2.9,0,5.6-0.7,8.2-2.1c2.6-1.4,4.6-3.4,6-6s2.1-5.3,2.1-8.1c0-2.9-0.7-5.6-2.2-8.2s-3.5-4.6-6.1-6
		s-5.3-2.1-8-2.1C494,23.3,468.1,23.3,468.1,23.3z"/>
	<path class="st1" d="M644.4,64.9l0.5,0.5l-61.3,35.3c3.9,2.3,8.2,3.5,12.8,3.5h0.3c4.8-0.1,9.2-1.2,13.1-3.5c4-2.3,7.3-5.6,9.7-9.7
		c1.2-2,2.1-4.1,2.7-6.4l22.3,6c-1,4-2.7,7.9-5,11.7c-4.7,7.8-10.8,13.8-18.3,18.1c-7.5,4.3-15.7,6.6-24.6,6.7h-1
		c-8.6,0-16.6-2.2-24-6.7c-7.8-4.6-13.8-10.6-18-18.1c-4.4-7.6-6.6-15.9-6.7-25v-0.6c0-8.9,2.3-17,6.9-24.5
		c4.7-7.6,10.7-13.5,17.9-17.7s15.4-6.4,24.4-6.7h1.2c4.3,0,8.4,0.6,12.4,1.7c4.1,1.2,8.1,2.8,11.8,5c7.2,4.1,13.2,10,17.9,17.7
		c2.5,4,4.3,8.2,5.4,12.6L644.4,64.9z M570.6,81.6L613,57c-1-0.8-2-1.5-3.1-2.2c-3.4-1.9-7.1-3.1-11.2-3.5v-0.1h-2.2
		c-4.7,0.2-9,1.4-12.9,3.7c-3.8,2.2-7,5.3-9.5,9.4c-2.4,3.9-3.7,8.2-3.7,12.8v0.6C570.3,79,570.4,80.3,570.6,81.6z"/>
	<path class="st1" d="M658,127V0h23.3v127H658z"/>
	<path class="st1" d="M793.7,127h-23.3v-7.4c-0.6,0.3-1.1,0.7-1.7,1c-7.9,4.4-16.2,6.6-24.8,6.6s-16.9-2.2-24.8-6.6
		c-7.9-4.4-14-10.5-18.4-18.4c-4.3-7.9-6.5-16.1-6.5-24.7c0-8.7,2.2-17.1,6.6-25c4.4-8,10.6-14.1,18.5-18.3
		c7.9-4.3,16.1-6.4,24.5-6.4c8.3,0,16.5,2.1,24.4,6.4c0.7,0.4,1.4,0.8,2.1,1.2V29h23.3v98H793.7z M732.8,54.7
		c-4.2,2.2-7.5,5.5-9.9,9.7c-2.4,4.3-3.5,8.7-3.5,13.4c0,4.5,1.1,8.9,3.5,13.1c2.3,4.2,5.6,7.4,9.8,9.8s8.6,3.5,13.2,3.5
		c4.6,0,9-1.2,13.2-3.5c4.2-2.4,7.5-5.6,9.8-9.8c2.3-4.2,3.5-8.5,3.5-13.1c0-4.7-1.2-9.1-3.6-13.4c-2.4-4.3-5.7-7.5-9.9-9.7
		s-8.5-3.4-13-3.4C741.3,51.3,737,52.4,732.8,54.7z"/>
	<path class="st1" d="M892.1,128.6c-0.1,8.3-2.4,16.3-6.6,24c-4.4,7.9-10.5,14-18.4,18.4s-16.2,6.6-24.8,6.6s-16.9-2.2-24.7-6.6
		c-3.8-2.2-7.3-4.7-10.3-7.7l16.3-16.3c1.6,1.6,3.5,3,5.5,4.1c4.2,2.4,8.6,3.6,13.2,3.6c4.5,0,8.9-1.2,13.2-3.5
		c4.2-2.4,7.5-5.6,9.8-9.8s3.5-8.5,3.5-13.1v-5.6c-6.3,3.1-12.7,4.6-19.3,4.6c-7.2,0-14.1-1.8-20.9-5.5c-6.8-3.6-12.1-8.9-16-15.8
		c-3.5-6.2-5.4-12.7-5.8-19.5V29.1h23.3v55.2c0,3.4,0.9,6.6,2.6,9.7c1.7,3.1,4.2,5.5,7.3,7.2s6.3,2.5,9.5,2.5c3.3,0,6.4-0.8,9.5-2.5
		s5.5-4.1,7.2-7.2c1.7-3,2.6-6.2,2.6-9.6V29.1h23.3L892.1,128.6L892.1,128.6z"/>
</g>
</svg>
