<?xml version="1.0" encoding="utf-8"?>
<!-- Generator: Adobe Illustrator 26.4.1, SVG Export Plug-In . SVG Version: 6.00 Build 0)  -->
<svg version="1.1" id="Capa_1" xmlns="http://www.w3.org/2000/svg" xmlns:xlink="http://www.w3.org/1999/xlink" x="0px" y="0px"
	 viewBox="0 0 480 480" style="enable-background:new 0 0 480 480;" xml:space="preserve">
<style type="text/css">
	.st0{fill:#F2F4F7;}
	.st1{fill:#CD1F26;}
</style>
<g>
	<g>
		<path class="st0" d="M472,0H8C3.6,0,0,3.6,0,8v464c0,4.4,3.6,8,8,8h464c4.4,0,8-3.6,8-8V8C480,3.6,476.4,0,472,0z M344,464H136
			v-16c0-30.9,25.1-56,56-56h96c30.9,0,56,25.1,56,56V464z M368,176v200H112V176H368z M232,120c0-4.4,3.6-8,8-8s8,3.6,8,8
			s-3.6,8-8,8S232,124.4,232,120z M464,464H360v-16c0-22.6-10.5-42.8-26.8-56H376c4.4,0,8-3.6,8-8v-64h24c4.4,0,8-3.6,8-8v-96
			c0-4.4-3.6-8-8-8h-24v-40c0-4.4-3.6-8-8-8H248v-17.5c9.3-3.3,16-12.1,16-22.5c0-13.2-10.8-24-24-24s-24,10.8-24,24
			c0,10.4,6.7,19.2,16,22.5V160H104c-4.4,0-8,3.6-8,8v40H72c-4.4,0-8,3.6-8,8v96c0,4.4,3.6,8,8,8h24v64c0,4.4,3.6,8,8,8h42.8
			c-16.3,13.2-26.8,33.4-26.8,56v16H16V80h448V464z M384,304v-80h16v80H384z M96,224v80H80v-80H96z M464,64H16V16h448V64z"/>
	</g>
</g>
<g>
	<g>
		<rect x="32" y="32" class="st0" width="16" height="16"/>
	</g>
</g>
<g>
	<g>
		<rect x="64" y="32" class="st0" width="16" height="16"/>
	</g>
</g>
<g>
	<g>
		<rect x="96" y="32" class="st0" width="16" height="16"/>
	</g>
</g>
<g>
	<g>
		<rect x="208" y="32" class="st0" width="240" height="16"/>
	</g>
</g>
<g>
	<g>
		<polygon class="st1" points="213.7,229.7 202.3,218.3 180,240.7 157.7,218.3 146.3,229.7 168.7,252 146.3,274.3 157.7,285.7 
			180,263.3 202.3,285.7 213.7,274.3 191.3,252 		"/>
	</g>
</g>
<g>
	<g>
		<polygon class="st1" points="333.7,229.7 322.3,218.3 300,240.7 277.7,218.3 266.3,229.7 288.7,252 266.3,274.3 277.7,285.7 
			300,263.3 322.3,285.7 333.7,274.3 311.3,252 		"/>
	</g>
</g>
<g>
	<g>
		<path class="st1" d="M240,296c-30.9,0-56,25.1-56,56c0,4.4,3.6,8,8,8h96c4.4,0,8-3.6,8-8C296,321.1,270.9,296,240,296z M200.8,344
			c3.7-18.2,19.9-32,39.2-32s35.5,13.8,39.2,32H200.8z"/>
	</g>
</g>
</svg>
